<?xml version="1.0"?>
<svg xmlns="http://www.w3.org/2000/svg" xmlns:xlink="http://www.w3.org/1999/xlink" version="1.1" id="Capa_1" x="0px" y="0px" viewBox="0 0 512 512" style="enable-background:new 0 0 512 512;" xml:space="preserve" width="512px" height="512px" class=""><g><circle style="fill:#4888A8" cx="256" cy="267" r="245" data-original="#FFD00D" class="active-path" data-old_color="#4989A9"/><g>
	<path style="fill:#293D7C;" d="M297.258,382.849h-14.809v63.609l52.528,52.529c18.77-6.388,36.517-14.987,52.927-25.492   L297.258,382.849z" data-original="#293D7C" class=""/>
	<path style="fill:#293D7C;" d="M229.551,382.849h-16.31l-90.053,90.053c16.341,10.562,34.02,19.226,52.725,25.693l53.639-53.639   v-62.107H229.551z" data-original="#293D7C" class=""/>
</g><path style="fill:#2E4C89;" d="M406.5,356.475c0-2.641,0.502-5.161,1.377-7.5H351v15h56.877  C407.002,361.635,406.5,359.115,406.5,356.475z" data-original="#2E4C89"/><circle style="fill:#2DA1DC;" cx="428" cy="356.48" r="22" data-original="#2DA1DC"/><path style="fill:#1E8BC2;" d="M423,356.475c0-9.137,5.57-16.972,13.5-20.296c-2.615-1.096-5.486-1.704-8.5-1.704  c-12.15,0-22,9.85-22,22s9.85,22,22,22c3.014,0,5.885-0.607,8.5-1.704C428.57,373.446,423,365.611,423,356.475z" data-original="#1E8BC2" class=""/><rect x="204.28" y="307" style="fill:#FFFFFF;" width="103.45" height="23.15" data-original="#FFFFFF"/><rect x="204.28" y="307" style="fill:#D9EAFC;" width="20.725" height="23.15" data-original="#D9EAFC"/><path style="fill:#1A2B63;" d="M228.275,382.849v127.58C237.377,511.455,246.624,512,256,512s18.623-0.545,27.725-1.571v-127.58  H228.275z" data-original="#1A2B63"/><path style="fill:#2DA1DC;" d="M352.374,378.899c0,2.75-2.25,5-5,5H164.626c-2.75,0-5-2.25-5-5V334.05c0-2.75,2.25-5,5-5h182.748  c2.75,0,5,2.25,5,5L352.374,378.899L352.374,378.899z" data-original="#2DA1DC"/><path style="fill:#1E99D6;" d="M191,378.899V334.05c0-2.75,2.25-5,5-5h-31.374c-2.75,0-5,2.25-5,5v44.849c0,2.75,2.25,5,5,5H196  C193.25,383.899,191,381.649,191,378.899z" data-original="#1E99D6"/><path style="fill:#2DA1DC;" d="M347.798,56L334.484,4.839C333.791,2.178,330.975,0,328.225,0H182.612  c-2.75,0-5.533,2.186-6.183,4.858L163.972,56H347.798z" data-original="#2DA1DC"/><path style="fill:#1E8BC2;" d="M184.582,56l12.457-51.142C197.689,2.186,200.472,0,203.222,0h-20.61  c-2.75,0-5.533,2.186-6.183,4.858L163.972,56H184.582z" data-original="#1E8BC2" class=""/><path style="fill:#293D7C;" d="M457,303.083c0,2.894-2.368,5.262-5.262,5.262H60.262c-2.894,0-5.262-2.368-5.262-5.262V60.038  c0-2.894,2.368-5.262,5.262-5.262h391.477c2.893,0,5.262,2.368,5.262,5.262L457,303.083L457,303.083z" data-original="#293D7C" class=""/><path style="fill:#1A2B63;" d="M75,60.038c0-2.894,2.368-5.262,5.262-5.262h-20c-2.894,0-5.262,2.368-5.262,5.262V147h20V60.038z" data-original="#1A2B63"/><path style="fill:#FFDD8D;" d="M348.704,161.66c-1.554,0-3.071,0.156-4.54,0.446c1.886,7.29,2.891,14.931,2.891,22.802  s-1.005,15.512-2.891,22.801c1.469,0.291,2.986,0.446,4.54,0.446c12.839,0,23.247-10.409,23.247-23.248  C371.951,172.068,361.543,161.66,348.704,161.66z" data-original="#FFDD8D"/><circle style="fill:#FFFFFF;" cx="90.88" cy="90.29" r="15.882" data-original="#FFFFFF"/><circle style="fill:#4888A8" cx="135.81" cy="90.29" r="15.882" data-original="#FFD00D" class="active-path" data-old_color="#4989A9"/><circle style="fill:#1E8BC2;" cx="256" cy="184.91" r="91.56" data-original="#1E8BC2" class=""/><circle style="fill:#52BBEF;" cx="256" cy="184.91" r="64.989" data-original="#52BBEF"/><path style="fill:#2DA1DC;" d="M212,184.908c0-32.317,23.595-59.114,54.494-64.133c-3.417-0.555-6.92-0.855-10.494-0.855  c-35.892,0-64.989,29.097-64.989,64.988c0,35.892,29.097,64.989,64.989,64.989c3.574,0,7.077-0.3,10.494-0.855  C235.595,244.023,212,217.226,212,184.908z" data-original="#2DA1DC"/><circle style="fill:#293D7C;" cx="256" cy="184.91" r="40.09" data-original="#293D7C" class=""/><path style="fill:#1A2B63;" d="M236.83,184.908c0-18.519,12.563-34.098,29.628-38.699c-3.335-0.899-6.839-1.387-10.458-1.387  c-22.138,0-40.085,17.948-40.085,40.086s17.947,40.085,40.085,40.085c3.619,0,7.123-0.488,10.458-1.387  C249.393,219.005,236.83,203.426,236.83,184.908z" data-original="#1A2B63"/><path style="fill:#4888A8" d="M437.005,102.033c0,2.75-2.25,5-5,5h-48.932c-2.75,0-5-2.25-5-5V79.41c0-2.75,2.25-5,5-5h48.932  c2.75,0,5,2.25,5,5V102.033z" data-original="#FFD00D" class="active-path" data-old_color="#4989A9"/><path style="fill:#FFAF10;" d="M399.068,102.033V79.41c0-2.75,2.25-5,5-5h-20.995c-2.75,0-5,2.25-5,5v22.623c0,2.75,2.25,5,5,5  h20.995C401.318,107.033,399.068,104.783,399.068,102.033z" data-original="#FFAF10"/><path style="fill:#FFFFFF;" d="M308.618,34.31c0,2.75-2.25,5-5,5h-95.236c-2.75,0-5-2.25-5-5v-12.1c0-2.75,2.25-5,5-5h95.236  c2.75,0,5,2.25,5,5V34.31z" data-original="#FFFFFF"/><path style="fill:#EEF6FF;" d="M224,34.31v-12.1c0-2.75,2.25-5,5-5h-20.618c-2.75,0-5,2.25-5,5v12.1c0,2.75,2.25,5,5,5H229  C226.25,39.31,224,37.06,224,34.31z" data-original="#EEF6FF"/><path style="fill:#2DA1DC;" d="M99.199,145.97H55v157.113c0,2.894,2.368,5.262,5.262,5.262h49.461V156.494  C109.723,150.706,104.987,145.97,99.199,145.97z" data-original="#2DA1DC"/><path style="fill:#1E99D6;" d="M76,303.083V145.97H55v157.113c0,2.894,2.368,5.262,5.262,5.262h21  C78.368,308.345,76,305.977,76,303.083z" data-original="#1E99D6"/></g> </svg>
