<?xml version="1.0"?>
<svg xmlns="http://www.w3.org/2000/svg" xmlns:xlink="http://www.w3.org/1999/xlink" version="1.1" id="Capa_1" x="0px" y="0px" viewBox="0 0 511.922 511.922" style="enable-background:new 0 0 511.922 511.922;" xml:space="preserve" width="512px" height="512px" class=""><g><path style="fill:#C7D0E4" d="M147.978,195.97h-7.999h-15.997h-15.998H91.986H75.988h-7.999c-4.398,0-7.999,3.602-7.999,7.999l0,0  h95.985l0,0C155.977,199.571,152.375,195.97,147.978,195.97z" data-original="#CCD1D9" class="" data-old_color="#C8D1E4"/><path style="fill:#E6E9ED;" d="M379.941,195.97h-15.997c-4.397,0-7.999,3.602-7.999,7.999l0,0h31.995l0,0  C387.94,199.571,384.34,195.97,379.941,195.97z" data-original="#E6E9ED"/><polygon style="fill:#C7D0E4" points="271.958,171.974 287.956,203.969 223.966,203.969 239.963,171.974 " data-original="#CCD1D9" class="" data-old_color="#C8D1E4"/><path style="fill:#E6E9ED;" d="M171.974,171.974c-8.795,0-15.997-7.202-15.997-15.997h199.969c0,8.795-7.202,15.997-15.998,15.997  h-67.989h-31.995H171.974z" data-original="#E6E9ED"/><g style="opacity:0.2;">
	<polygon points="271.958,171.974 239.963,171.974 235.964,179.973 239.963,179.973 271.958,179.973 275.958,179.973  " data-original="#000000" class=""/>
</g><path style="fill:#5D9CEC;" d="M355.945,35.995v119.981H155.977V35.995c0-8.796,7.202-15.998,15.997-15.998h167.974  C348.743,19.997,355.945,27.199,355.945,35.995z" data-original="#5D9CEC"/><g>
	<polygon style="fill:#E5B580" points="499.923,235.964 499.923,491.924 483.926,491.924 483.926,459.93 483.926,283.956    483.926,235.964  " data-original="#FFD2A6" class="" data-old_color="#E5B47F"/>
	<polygon style="fill:#E5B580" points="507.922,219.966 507.922,235.964 499.923,235.964 483.926,235.964 131.98,235.964    11.999,235.964 4,235.964 4,219.966  " data-original="#FFD2A6" class="" data-old_color="#E5B47F"/>
</g><path style="fill:#3E72C8" d="M483.926,147.978v47.992c0,4.398-3.602,7.999-7.999,7.999h-31.995c-4.397,0-7.998-3.601-7.998-7.999  v-47.992H483.926z" data-original="#ED5565" class="" data-old_color="#ED5565"/><g style="opacity:0.3;">
	<path style="fill:#FFFFFF;" d="M443.932,195.97v-47.992h-7.998v47.992c0,4.398,3.601,7.999,7.998,7.999h7.999   C447.533,203.969,443.932,200.368,443.932,195.97z" data-original="#FFFFFF" class=""/>
</g><g style="opacity:0.2;">
	<path d="M475.927,195.97v-47.992h7.999v47.992c0,4.398-3.602,7.999-7.999,7.999h-7.999   C472.326,203.969,475.927,200.368,475.927,195.97z" data-original="#000000" class=""/>
</g><path style="fill:#5D9CEC;" d="M435.934,387.94c4.397,0,7.998,3.601,7.998,7.999c0,4.397-3.601,7.998-7.998,7.998  c-4.398,0-7.999-3.601-7.999-7.998C427.935,391.541,431.535,387.94,435.934,387.94z" data-original="#5D9CEC"/><path style="fill:#656D78" d="M387.94,451.931V283.956h95.985V459.93H387.94V451.931z M443.932,395.94  c0-4.398-3.601-7.999-7.998-7.999c-4.398,0-7.999,3.601-7.999,7.999c0,4.397,3.601,7.998,7.999,7.998  C440.331,403.938,443.932,400.337,443.932,395.94z" data-original="#656D78" class="active-path"/><g>
	<rect x="12.001" y="299.951" style="fill:#E5B580" width="119.98" height="63.989" data-original="#FFD2A6" class="" data-old_color="#E5B47F"/>
	<rect x="12.001" y="363.941" style="fill:#E5B580" width="119.98" height="63.99" data-original="#FFD2A6" class="" data-old_color="#E5B47F"/>
	<rect x="12.001" y="427.931" style="fill:#E5B580" width="119.98" height="63.99" data-original="#FFD2A6" class="" data-old_color="#E5B47F"/>
</g><rect x="35.991" y="267.961" style="fill:#3E72C8" width="71.988" height="15.997" data-original="#ED5565" class="" data-old_color="#ED5565"/><rect x="28.001" y="283.961" style="fill:#95CAEE" width="87.986" height="15.998" data-original="#FFCE54" class="" data-old_color="#67AFE0"/><g style="opacity:0.2;">
	<rect x="483.921" y="235.961" width="15.997" height="7.999" data-original="#000000" class=""/>
</g><g style="opacity:0.2;">
	<rect x="491.921" y="243.961" width="7.999" height="247.96" data-original="#000000" class=""/>
</g><g style="opacity:0.2;">
	<rect x="475.931" y="283.961" width="7.999" height="175.97" data-original="#000000" class=""/>
</g><g style="opacity:0.2;">
	<rect x="387.941" y="283.961" style="fill:#FFFFFF;" width="7.999" height="175.97" data-original="#FFFFFF" class=""/>
</g><g style="opacity:0.5;">
	<rect x="12.001" y="299.951" style="fill:#FFFFFF;" width="7.999" height="191.97" data-original="#FFFFFF" class=""/>
</g><g style="opacity:0.2;">
	<rect x="123.981" y="299.951" width="7.999" height="191.97" data-original="#000000" class=""/>
</g><g style="opacity:0.5;">
	<rect x="4.001" y="219.961" style="fill:#FFFFFF;" width="503.92" height="7.999" data-original="#FFFFFF" class=""/>
</g><g style="opacity:0.3;">
	<rect x="35.991" y="267.961" style="fill:#FFFFFF;" width="7.999" height="15.997" data-original="#FFFFFF" class=""/>
</g><g style="opacity:0.2;">
	<rect x="99.981" y="267.961" width="7.999" height="15.997" data-original="#000000" class=""/>
</g><g style="opacity:0.5;">
	<rect x="28.001" y="283.961" style="fill:#FFFFFF;" width="7.999" height="15.998" data-original="#FFFFFF" class=""/>
</g><g style="opacity:0.2;">
	<rect x="107.981" y="283.961" width="7.999" height="15.998" data-original="#000000" class=""/>
</g><g style="opacity:0.3;">
	<polygon style="fill:#FFFFFF;" points="217.506,155.977 242.338,155.977 278.762,19.997 253.938,19.997  " data-original="#FFFFFF" class=""/>
</g><g style="opacity:0.3;">
	<polygon style="fill:#FFFFFF;" points="246.478,155.977 250.618,155.977 287.05,19.997 282.91,19.997  " data-original="#FFFFFF" class=""/>
</g><g>
	<path style="fill:#3A3847" d="M507.922,239.963H4c-2.211,0-4-1.788-4-3.999v-15.998c0-2.21,1.789-3.999,4-3.999h503.922   c2.211,0,4,1.789,4,3.999v15.998C511.922,238.175,510.133,239.963,507.922,239.963z M7.999,231.965h495.924v-7.999H7.999V231.965z" data-original="#3A3847" class=""/>
	<path style="fill:#3A3847" d="M499.923,495.924c-2.21,0-3.999-1.789-3.999-4V243.963c0-2.211,1.789-4,3.999-4c2.211,0,4,1.789,4,4   v247.961C503.923,494.135,502.134,495.924,499.923,495.924z" data-original="#3A3847" class=""/>
	<path style="fill:#3A3847" d="M483.926,495.924c-2.211,0-4-1.789-4-4V243.963c0-2.211,1.789-4,4-4s3.999,1.789,3.999,4v247.961   C487.925,494.135,486.137,495.924,483.926,495.924z" data-original="#3A3847" class=""/>
	<path style="fill:#3A3847" d="M499.923,495.924h-15.997c-2.211,0-4-1.789-4-4c0-2.21,1.789-3.999,4-3.999h15.997   c2.211,0,4,1.789,4,3.999C503.923,494.135,502.134,495.924,499.923,495.924z" data-original="#3A3847" class=""/>
	<path style="fill:#3A3847" d="M475.927,463.929h-95.986c-2.21,0-3.999-1.789-3.999-3.999c0-2.211,1.789-4,3.999-4h95.985   c2.211,0,3.999,1.789,3.999,4C479.926,462.14,478.138,463.929,475.927,463.929z" data-original="#3A3847" class=""/>
	<path style="fill:#3A3847" d="M131.98,303.953H11.999c-2.21,0-4-1.789-4-3.999c0-2.211,1.789-4,4-4H131.98c2.21,0,4,1.789,4,4   C135.98,302.164,134.19,303.953,131.98,303.953z" data-original="#3A3847" class=""/>
	<path style="fill:#3A3847" d="M387.94,455.93c-2.211,0-3.999-1.789-3.999-3.999V283.956c0-2.21,1.788-3.999,3.999-3.999   s3.999,1.789,3.999,3.999v167.975C391.94,454.141,390.151,455.93,387.94,455.93z" data-original="#3A3847" class=""/>
	<path style="fill:#3A3847" d="M475.927,287.955h-87.986c-2.211,0-3.999-1.788-3.999-3.999c0-2.21,1.788-3.999,3.999-3.999h87.986   c2.211,0,3.999,1.789,3.999,3.999C479.926,286.167,478.138,287.955,475.927,287.955z" data-original="#3A3847" class=""/>
	<path style="fill:#3A3847" d="M467.928,311.952h-63.99c-2.21,0-3.999-1.789-3.999-3.999c0-2.211,1.789-4,3.999-4h63.99   c2.211,0,4,1.789,4,4C471.928,310.163,470.139,311.952,467.928,311.952z" data-original="#3A3847" class=""/>
	<path style="fill:#3A3847" d="M467.928,327.949h-63.99c-2.21,0-3.999-1.789-3.999-3.999c0-2.211,1.789-3.999,3.999-3.999h63.99   c2.211,0,4,1.788,4,3.999C471.928,326.16,470.139,327.949,467.928,327.949z" data-original="#3A3847" class=""/>
	<path style="fill:#3A3847" d="M435.934,407.938c-6.617,0-11.999-5.383-11.999-11.998c0-6.617,5.382-11.998,11.999-11.998   c6.615,0,11.998,5.381,11.998,11.998C447.932,402.555,442.549,407.938,435.934,407.938z M435.934,391.94c-2.203,0-4,1.797-4,4   c0,2.202,1.797,3.999,4,3.999c2.202,0,3.999-1.797,3.999-3.999C439.933,393.736,438.136,391.94,435.934,391.94z" data-original="#3A3847" class=""/>
	<path style="fill:#3A3847" d="M460.172,399.939c-2.211,0-4.039-1.789-4.039-3.999c0-2.211,1.75-4,3.953-4h0.086   c2.202,0,3.999,1.789,3.999,4C464.171,398.149,462.374,399.939,460.172,399.939z" data-original="#3A3847" class=""/>
	<path style="fill:#3A3847" d="M412.179,399.939c-2.21,0-4.038-1.789-4.038-3.999c0-2.211,1.75-4,3.952-4h0.086   c2.203,0,3.999,1.789,3.999,4C416.178,398.149,414.382,399.939,412.179,399.939z" data-original="#3A3847" class=""/>
	<path style="fill:#3A3847" d="M411.937,431.934h-7.999c-2.21,0-3.999-1.789-3.999-4c0-2.21,1.789-3.999,3.999-3.999h7.999   c2.211,0,3.999,1.789,3.999,3.999C415.936,430.145,414.148,431.934,411.937,431.934z" data-original="#3A3847" class=""/>
	<path style="fill:#3A3847" d="M467.928,431.934h-7.998c-2.211,0-4-1.789-4-4c0-2.21,1.789-3.999,4-3.999h7.998   c2.211,0,4,1.789,4,3.999C471.928,430.145,470.139,431.934,467.928,431.934z" data-original="#3A3847" class=""/>
	<path style="fill:#3A3847" d="M411.937,367.943h-7.999c-2.21,0-3.999-1.789-3.999-4c0-2.21,1.789-3.999,3.999-3.999h7.999   c2.211,0,3.999,1.789,3.999,3.999C415.936,366.154,414.148,367.943,411.937,367.943z" data-original="#3A3847" class=""/>
	<path style="fill:#3A3847" d="M467.928,367.943h-7.998c-2.211,0-4-1.789-4-4c0-2.21,1.789-3.999,4-3.999h7.998   c2.211,0,4,1.789,4,3.999C471.928,366.154,470.139,367.943,467.928,367.943z" data-original="#3A3847" class=""/>
	<path style="fill:#3A3847" d="M260.202,167.975c-2.21,0-4.038-1.789-4.038-4c0-2.21,1.75-3.999,3.952-3.999h0.086   c2.203,0,3.999,1.789,3.999,3.999C264.201,166.186,262.405,167.975,260.202,167.975z" data-original="#3A3847" class=""/>
	<path style="fill:#3A3847" d="M355.945,159.976H155.977c-2.211,0-4-1.789-4-3.999c0-2.211,1.789-4,4-4h199.969   c2.211,0,4,1.789,4,4C359.945,158.187,358.156,159.976,355.945,159.976z" data-original="#3A3847" class=""/>
	<path style="fill:#3A3847" d="M227.965,199.97c-0.601,0-1.21-0.137-1.789-0.422c-1.976-0.988-2.773-3.391-1.789-5.366   l7.999-15.998c0.992-1.977,3.398-2.758,5.367-1.789c1.976,0.988,2.772,3.391,1.789,5.366l-7.999,15.998   C230.84,199.161,229.426,199.97,227.965,199.97z" data-original="#3A3847" class=""/>
	<path style="fill:#3A3847" d="M283.957,199.97c-1.461,0-2.875-0.809-3.578-2.211l-7.999-15.998   c-0.983-1.976-0.188-4.378,1.789-5.366c1.984-0.977,4.374-0.188,5.366,1.789l7.999,15.998c0.984,1.976,0.188,4.378-1.789,5.366   C285.167,199.833,284.558,199.97,283.957,199.97z" data-original="#3A3847" class=""/>
	<path style="fill:#3A3847" d="M299.954,207.968h-87.986c-2.211,0-4-1.788-4-3.999s1.789-3.999,4-3.999h87.986   c2.21,0,3.999,1.788,3.999,3.999S302.164,207.968,299.954,207.968z" data-original="#3A3847" class=""/>
	<path style="fill:#3A3847" d="M339.947,175.973H171.974c-11.029,0-19.997-8.971-19.997-19.996V35.995   c0-11.026,8.968-19.997,19.997-19.997h167.974c11.03,0,19.998,8.971,19.998,19.997v119.981   C359.945,167.002,350.978,175.973,339.947,175.973z M171.974,23.996c-6.616,0-11.998,5.383-11.998,11.999v119.981   c0,6.616,5.382,11.998,11.998,11.998h167.974c6.617,0,11.999-5.382,11.999-11.998V35.995c0-6.616-5.382-11.999-11.999-11.999   H171.974z" data-original="#3A3847" class=""/>
	<path style="fill:#3A3847" d="M59.991,207.968c-2.211,0-4-1.788-4-3.999c0-6.616,5.382-11.998,11.998-11.998   c2.21,0,4,1.789,4,3.999c0,2.211-1.789,4-4,4c-2.203,0-4,1.792-4,3.999C63.99,206.18,62.202,207.968,59.991,207.968z" data-original="#3A3847" class=""/>
	<path style="fill:#3A3847" d="M155.977,207.968c-2.211,0-4-1.788-4-3.999c0-2.207-1.796-3.999-3.999-3.999c-2.211,0-4-1.789-4-4   c0-2.21,1.789-3.999,4-3.999c6.616,0,11.998,5.382,11.998,11.998C159.976,206.18,158.187,207.968,155.977,207.968z" data-original="#3A3847" class=""/>
	<path style="fill:#3A3847" d="M147.978,199.97H67.99c-2.21,0-4-1.789-4-4c0-2.21,1.789-3.999,4-3.999h79.988   c2.21,0,3.999,1.789,3.999,3.999C151.977,198.181,150.188,199.97,147.978,199.97z" data-original="#3A3847" class=""/>
	<path style="fill:#3A3847" d="M355.945,207.968c-2.211,0-3.999-1.788-3.999-3.999c0-6.616,5.382-11.998,11.998-11.998   c2.21,0,3.999,1.789,3.999,3.999c0,2.211-1.789,4-3.999,4c-2.203,0-3.999,1.792-3.999,3.999   C359.945,206.18,358.156,207.968,355.945,207.968z" data-original="#3A3847" class=""/>
	<path style="fill:#3A3847" d="M387.94,207.968c-2.211,0-3.999-1.788-3.999-3.999c0-2.207-1.797-3.999-4-3.999   c-2.21,0-3.999-1.789-3.999-4c0-2.21,1.789-3.999,3.999-3.999c6.616,0,11.998,5.382,11.998,11.998   C391.94,206.18,390.151,207.968,387.94,207.968z" data-original="#3A3847" class=""/>
	<path style="fill:#3A3847" d="M379.941,199.97h-15.997c-2.211,0-3.999-1.789-3.999-4c0-2.21,1.788-3.999,3.999-3.999h15.997   c2.211,0,4,1.789,4,3.999C383.941,198.181,382.152,199.97,379.941,199.97z" data-original="#3A3847" class=""/>
	<path style="fill:#3A3847" d="M131.98,495.924c-2.21,0-4-1.789-4-4v-191.97c0-2.211,1.789-4,4-4s4,1.789,4,4v191.97   C135.98,494.135,134.19,495.924,131.98,495.924z" data-original="#3A3847" class=""/>
	<path style="fill:#3A3847" d="M131.98,295.954c-2.21,0-4-1.788-4-3.999v-47.992c0-2.211,1.789-4,4-4s4,1.789,4,4v47.992   C135.98,294.166,134.19,295.954,131.98,295.954z" data-original="#3A3847" class=""/>
	<path style="fill:#3A3847" d="M11.999,295.954c-2.21,0-4-1.788-4-3.999v-47.992c0-2.211,1.789-4,4-4s4,1.789,4,4v47.992   C15.998,294.166,14.209,295.954,11.999,295.954z" data-original="#3A3847" class=""/>
	<path style="fill:#3A3847" d="M131.98,367.943H11.999c-2.21,0-4-1.789-4-4c0-2.21,1.789-3.999,4-3.999H131.98   c2.21,0,4,1.789,4,3.999C135.98,366.154,134.19,367.943,131.98,367.943z" data-original="#3A3847" class=""/>
	<path style="fill:#3A3847" d="M131.98,431.934H11.999c-2.21,0-4-1.789-4-4c0-2.21,1.789-3.999,4-3.999H131.98   c2.21,0,4,1.789,4,3.999C135.98,430.145,134.19,431.934,131.98,431.934z" data-original="#3A3847" class=""/>
	<path style="fill:#3A3847" d="M131.98,495.924H11.999c-2.21,0-4-1.789-4-4c0-2.21,1.789-3.999,4-3.999H131.98   c2.21,0,4,1.789,4,3.999C135.98,494.135,134.19,495.924,131.98,495.924z" data-original="#3A3847" class=""/>
	<path style="fill:#3A3847" d="M83.987,335.948H59.991c-2.211,0-4-1.789-4-3.999c0-2.211,1.789-4,4-4h23.996c2.211,0,4,1.789,4,4   C87.987,334.159,86.198,335.948,83.987,335.948z" data-original="#3A3847" class=""/>
	<path style="fill:#3A3847" d="M83.987,399.939H59.991c-2.211,0-4-1.789-4-3.999c0-2.211,1.789-4,4-4h23.996c2.211,0,4,1.789,4,4   C87.987,398.149,86.198,399.939,83.987,399.939z" data-original="#3A3847" class=""/>
	<path style="fill:#3A3847" d="M83.987,463.929H59.991c-2.211,0-4-1.789-4-3.999c0-2.211,1.789-4,4-4h23.996c2.211,0,4,1.789,4,4   C87.987,462.14,86.198,463.929,83.987,463.929z" data-original="#3A3847" class=""/>
	<path style="fill:#3A3847" d="M11.999,495.924c-2.21,0-4-1.789-4-4v-191.97c0-2.211,1.789-4,4-4s4,1.789,4,4v191.97   C15.998,494.135,14.209,495.924,11.999,495.924z" data-original="#3A3847" class=""/>
	<path style="fill:#3A3847" d="M115.982,287.955H27.996c-2.211,0-4-1.788-4-3.999c0-2.21,1.789-3.999,4-3.999h87.986   c2.211,0,4,1.789,4,3.999C119.982,286.167,118.193,287.955,115.982,287.955z" data-original="#3A3847" class=""/>
	<path style="fill:#3A3847" d="M115.982,295.954c-2.211,0-3.999-1.788-3.999-3.999v-7.999c0-2.21,1.788-3.999,3.999-3.999   s4,1.789,4,3.999v7.999C119.982,294.166,118.193,295.954,115.982,295.954z" data-original="#3A3847" class=""/>
	<path style="fill:#3A3847" d="M27.996,295.954c-2.211,0-4-1.788-4-3.999v-7.999c0-2.21,1.789-3.999,4-3.999   c2.21,0,3.999,1.789,3.999,3.999v7.999C31.995,294.166,30.207,295.954,27.996,295.954z" data-original="#3A3847" class=""/>
	<path style="fill:#3A3847" d="M107.983,271.958H35.995c-2.211,0-4-1.788-4-3.999s1.789-4,4-4h71.988c2.211,0,4,1.789,4,4   S110.194,271.958,107.983,271.958z" data-original="#3A3847" class=""/>
	<path style="fill:#3A3847" d="M107.983,279.957c-2.21,0-3.999-1.789-3.999-4v-7.998c0-2.211,1.789-4,3.999-4c2.211,0,4,1.789,4,4   v7.998C111.983,278.168,110.194,279.957,107.983,279.957z" data-original="#3A3847" class=""/>
	<path style="fill:#3A3847" d="M35.995,279.957c-2.211,0-4-1.789-4-4v-7.998c0-2.211,1.789-4,4-4c2.21,0,3.999,1.789,3.999,4v7.998   C39.994,278.168,38.205,279.957,35.995,279.957z" data-original="#3A3847" class=""/>
	<path style="fill:#3A3847" d="M75.988,203.969c-2.21,0-3.999-1.789-3.999-3.999v-4c0-2.21,1.789-3.999,3.999-3.999   c2.211,0,4,1.789,4,3.999v4C79.988,202.18,78.199,203.969,75.988,203.969z" data-original="#3A3847" class=""/>
	<path style="fill:#3A3847" d="M91.986,203.969c-2.211,0-4-1.789-4-3.999v-4c0-2.21,1.789-3.999,4-3.999   c2.21,0,3.999,1.789,3.999,3.999v4C95.985,202.18,94.197,203.969,91.986,203.969z" data-original="#3A3847" class=""/>
	<path style="fill:#3A3847" d="M107.983,203.969c-2.21,0-3.999-1.789-3.999-3.999v-4c0-2.21,1.789-3.999,3.999-3.999   c2.211,0,4,1.789,4,3.999v4C111.983,202.18,110.194,203.969,107.983,203.969z" data-original="#3A3847" class=""/>
	<path style="fill:#3A3847" d="M123.982,203.969c-2.211,0-4-1.789-4-3.999v-4c0-2.21,1.789-3.999,4-3.999   c2.21,0,3.999,1.789,3.999,3.999v4C127.981,202.18,126.192,203.969,123.982,203.969z" data-original="#3A3847" class=""/>
	<path style="fill:#3A3847" d="M139.979,203.969c-2.21,0-3.999-1.789-3.999-3.999v-4c0-2.21,1.789-3.999,3.999-3.999   c2.211,0,4,1.789,4,3.999v4C143.978,202.18,142.19,203.969,139.979,203.969z" data-original="#3A3847" class=""/>
	<path style="fill:#3A3847" d="M435.934,199.97c-2.211,0-4-1.789-4-4v-47.992c0-2.211,1.789-4,4-4c2.21,0,3.999,1.789,3.999,4   v47.992C439.933,198.181,438.144,199.97,435.934,199.97z" data-original="#3A3847" class=""/>
	<path style="fill:#3A3847" d="M443.932,207.968c-6.616,0-11.998-5.382-11.998-11.998c0-2.21,1.789-3.999,4-3.999   c2.21,0,3.999,1.789,3.999,3.999c0,2.207,1.796,4,3.999,4c2.211,0,4,1.788,4,3.999S446.143,207.968,443.932,207.968z" data-original="#3A3847" class=""/>
	<path style="fill:#3A3847" d="M483.926,199.97c-2.211,0-4-1.789-4-4v-47.992c0-2.211,1.789-4,4-4s3.999,1.789,3.999,4v47.992   C487.925,198.181,486.137,199.97,483.926,199.97z" data-original="#3A3847" class=""/>
	<path style="fill:#3A3847" d="M475.927,207.968c-2.21,0-3.999-1.788-3.999-3.999s1.789-3.999,3.999-3.999   c2.203,0,3.999-1.793,3.999-4c0-2.21,1.789-3.999,4-3.999s3.999,1.789,3.999,3.999   C487.925,202.586,482.543,207.968,475.927,207.968z" data-original="#3A3847" class=""/>
	<path style="fill:#3A3847" d="M483.926,151.977h-47.992c-2.211,0-4-1.789-4-3.999c0-2.211,1.789-4,4-4h47.992   c2.211,0,3.999,1.789,3.999,4C487.925,150.188,486.137,151.977,483.926,151.977z" data-original="#3A3847" class=""/>
	<path style="fill:#3A3847" d="M499.923,167.975h-7.999c-2.21,0-3.999-1.789-3.999-4c0-2.21,1.789-3.999,3.999-3.999h7.999   c2.211,0,4,1.789,4,3.999C503.923,166.186,502.134,167.975,499.923,167.975z" data-original="#3A3847" class=""/>
	<path style="fill:#3A3847" d="M499.923,191.971c-2.21,0-3.999-1.789-3.999-3.999v-23.997c0-2.21,1.789-3.999,3.999-3.999   c2.211,0,4,1.789,4,3.999v23.997C503.923,190.182,502.134,191.971,499.923,191.971z" data-original="#3A3847" class=""/>
	<path style="fill:#3A3847" d="M499.923,191.971h-7.999c-2.21,0-3.999-1.789-3.999-3.999c0-2.211,1.789-4,3.999-4h7.999   c2.211,0,4,1.789,4,4C503.923,190.182,502.134,191.971,499.923,191.971z" data-original="#3A3847" class=""/>
	<path style="fill:#3A3847" d="M459.93,135.98c-1.211,0-2.414-0.551-3.203-1.602c-1.32-1.762-0.969-4.265,0.797-5.593   c1.547-1.184,5.53-5.14,5.515-9.276c-0.008-2.792-1.866-5.593-5.507-8.326c-5.78-4.336-8.709-9.3-8.709-14.752   c0-9.007,8.35-15.377,8.709-15.643c1.766-1.315,4.265-0.979,5.601,0.801c1.32,1.766,0.961,4.273-0.805,5.597   c-1.53,1.168-5.522,5.129-5.507,9.272c0.008,2.793,1.867,5.593,5.507,8.327c5.78,4.335,8.71,9.299,8.71,14.751   c0,9.007-8.351,15.377-8.71,15.643C461.609,135.718,460.766,135.98,459.93,135.98z" data-original="#3A3847" class=""/>
	<path style="fill:#3A3847" d="M475.927,207.968h-31.995c-2.211,0-3.999-1.788-3.999-3.999s1.788-3.999,3.999-3.999h31.995   c2.211,0,3.999,1.788,3.999,3.999S478.138,207.968,475.927,207.968z" data-original="#3A3847" class=""/>
</g></g> </svg>
